<?xml version="1.0" encoding="UTF-8"?>
<svg width="24px" height="14px" viewBox="0 0 24 14" version="1.1" xmlns="http://www.w3.org/2000/svg" xmlns:xlink="http://www.w3.org/1999/xlink">
    <title>About Us_icon</title>
    <g id="Main-Navigation" stroke="none" stroke-width="1" fill="none" fill-rule="evenodd" fill-opacity="0.9">
        <g id="FinalHeader-DESKTOP" transform="translate(-922.000000, -14.000000)" fill="#FFFFFF">
            <g id="Group-3" transform="translate(-2.000000, 0.000000)">
                <g id="Group-6" transform="translate(24.000000, 10.000000)">
                    <g id="Group-9" transform="translate(900.000000, 1.000000)">
                        <g id="About-Us_icon" transform="translate(0.779221, 3.000000)">
                            <path d="M13.6866519,0.22027972 C14.0661007,0.22027972 14.3792966,0.530464067 14.3763066,0.912924378 L14.3763066,0.912924378 L14.3763066,12.4258832 C14.3763066,12.8023205 14.0630892,13.1155163 13.6866519,13.1155163 L13.6866519,13.1155163 L8.62432292,13.1155163 C8.24186261,13.1155163 7.93167827,12.805332 7.93167827,12.4258832 L7.93167827,12.4258832 L7.93167827,0.912924378 C7.93167827,0.533475565 8.24487411,0.22027972 8.62432292,0.22027972 L8.62432292,0.22027972 Z M6.42894051,2.80715694 C6.81441232,2.80715694 7.13061966,3.11432979 7.13061966,3.4937786 L7.13061966,3.4937786 L7.13061966,12.4258832 C7.13061966,12.8023205 6.81441232,13.1125048 6.42894051,13.1125048 L6.42894051,13.1125048 L0.827553279,13.1125048 C0.44208147,13.1125048 0.125874126,12.8023205 0.125874126,12.4258832 L0.125874126,12.4258832 L0.125874126,4.45444663 C0.125874126,4.07499781 0.44208147,3.76782497 0.827553279,3.76782497 L0.827553279,3.76782497 Z M16.0717587,2.80414544 L21.673146,3.76481347 C22.0586178,3.76481347 22.3748251,4.07499781 22.3748251,4.45143513 L22.3748251,4.45143513 L22.3748251,12.4198602 C22.3748251,12.7962975 22.0586178,13.1064818 21.673146,13.1064818 L21.673146,13.1064818 L16.0717587,13.1064818 C15.6862869,13.1064818 15.3700796,12.7962975 15.3700796,12.4198602 L15.3700796,12.4198602 L15.3700796,3.4907671 C15.3700796,3.11131829 15.6862869,2.80414544 16.0717587,2.80414544 L16.0717587,2.80414544 Z M13.0753177,8.59224558 L9.23565712,8.59224558 L9.23565712,10.4322712 L13.0753177,10.4322712 L13.0753177,8.59224558 Z M5.54657145,8.46275115 L1.70992234,8.46275115 L1.70992234,10.3027767 L5.54657145,10.3027767 L5.54657145,8.46275115 Z M20.7937884,8.46275115 L16.9541278,8.46275115 L16.9541278,10.3027767 L20.7937884,10.3027767 L20.7937884,8.46275115 Z M13.0753177,5.74637949 L9.23565712,5.74637949 L9.23565712,7.58640508 L13.0753177,7.58640508 L13.0753177,5.74637949 Z M5.54657145,5.61688505 L1.70992234,5.61688505 L1.70992234,7.45691064 L5.54657145,7.45691064 L5.54657145,5.61688505 Z M20.7937884,5.61688505 L16.9541278,5.61688505 L16.9541278,7.45691064 L20.7937884,7.45691064 L20.7937884,5.61688505 Z M13.0753177,2.8944904 L9.23565712,2.8944904 L9.23565712,4.73451599 L13.0753177,4.73451599 L13.0753177,2.8944904 Z" id="Combined-Shape"></path>
                        </g>
                    </g>
                </g>
            </g>
        </g>
    </g>
</svg>